<svg width="800" height="500" viewBox="0 0 800 500" fill="none" xmlns="http://www.w3.org/2000/svg">
  <defs>
    <linearGradient id="bg" x1="400" y1="0" x2="400" y2="500" gradientUnits="userSpaceOnUse">
      <stop stop-color="#1B171A"/>
      <stop offset="1" stop-color="#2A2429"/>
    </linearGradient>
    <linearGradient id="hook" x1="0" y1="0" x2="0" y2="170" gradientUnits="userSpaceOnUse">
      <stop stop-color="#F0D79F"/>
      <stop offset="1" stop-color="#B7862F"/>
    </linearGradient>
    <radialGradient id="pearl" cx="0" cy="0" r="1" gradientUnits="userSpaceOnUse" gradientTransform="translate(0 0) rotate(90) scale(44)">
      <stop stop-color="#FFFFFF"/>
      <stop offset="1" stop-color="#D9D6E3"/>
    </radialGradient>
  </defs>
  <rect width="800" height="500" fill="url(#bg)"/>
  <path d="M275 125C240 125 220 148 220 176C220 204 240 227 275 227" stroke="url(#hook)" stroke-width="14" stroke-linecap="round"/>
  <path d="M525 125C560 125 580 148 580 176C580 204 560 227 525 227" stroke="url(#hook)" stroke-width="14" stroke-linecap="round"/>
  <line x1="275" y1="227" x2="275" y2="272" stroke="#DFC78E" stroke-width="8" stroke-linecap="round"/>
  <line x1="525" y1="227" x2="525" y2="272" stroke="#DFC78E" stroke-width="8" stroke-linecap="round"/>
  <circle cx="275" cy="312" r="44" fill="url(#pearl)"/>
  <circle cx="525" cy="312" r="44" fill="url(#pearl)"/>
  <circle cx="260" cy="297" r="10" fill="#FFFFFF" fill-opacity="0.7"/>
  <circle cx="510" cy="297" r="10" fill="#FFFFFF" fill-opacity="0.7"/>
</svg>
